<svg width="98" height="30" viewBox="0 0 98 30" fill="none" xmlns="http://www.w3.org/2000/svg">
<path d="M72.6377 28.0538L80.679 19.1477L72.6377 10.2402H81.1221L85.1048 14.5669L88.9399 10.2402H97.1283L89.1252 19.1109L97.2382 28.0538H88.719L84.7723 23.6917L80.863 28.0538H72.6377Z" fill="#858585"/>
<path d="M72.6372 6.2466H63.5298V10.2398H72.6372V16.2578H63.5298V21.7816H72.6372V28.0534H56.8359V-0.0078125H72.6372V6.2466Z" fill="#858585"/>
<path d="M50.1706 -0.0078125V11.4762H50.0972C48.6215 9.8042 46.7777 9.22318 44.6384 9.22318C40.2562 9.22318 36.9552 12.1597 35.7964 16.0421C34.475 11.7642 31.0671 9.14301 26.0137 9.14301C21.9098 9.14301 18.6692 10.9588 16.978 13.9176V10.2402H8.49526V6.24743H17.7523V-0.0078125H0.933594V28.0538H8.49526V16.2578H16.0322C15.8075 17.1244 15.6876 18.0521 15.6876 19.0311C15.6876 24.8846 20.2241 28.9918 26.0137 28.9918C30.8822 28.9918 34.0906 26.7388 35.7876 22.6312H29.3076C28.4309 23.8652 27.766 24.2317 26.0137 24.2317C23.9816 24.2317 22.2297 22.4841 22.2297 20.4125H35.4246C35.9968 25.0619 39.6709 29.0716 44.713 29.0716C46.888 29.0716 48.8793 28.017 50.0972 26.2363H50.1706V28.053H56.8363V-0.0078125H50.1706ZM22.4401 16.3417C22.8606 14.5594 24.263 13.3944 26.0137 13.3944C27.9409 13.3944 29.2719 14.5234 29.622 16.3417C29.7695 16.3417 22.4401 16.3417 22.4401 16.3417ZM46.1254 23.7809C43.6683 23.7809 42.1415 21.5242 42.1415 19.1678C42.1415 16.6491 43.4696 14.2271 46.1254 14.2271C48.8793 14.2271 49.9765 16.6491 49.9765 19.1678C49.9761 21.5564 48.8135 23.7809 46.1254 23.7809Z" fill="#858585"/>
</svg>
