<svg width="103" height="29" viewBox="0 0 103 29" fill="none" xmlns="http://www.w3.org/2000/svg">
<path d="M11.7718 4.78125V12.9408H4.33726V4.78125H0.807617V24.2588H4.33726V16.3642H11.7718V24.2588H15.3015V4.78125H11.7718Z" fill="#858585"/>
<path d="M26.5983 17.9626C26.5983 18.7432 26.2907 19.4919 25.743 20.0438C25.1954 20.5958 24.4527 20.9059 23.6783 20.9059C22.9038 20.9059 22.1611 20.5958 21.6135 20.0438C21.0659 19.4919 20.7582 18.7432 20.7582 17.9626V9.62012H17.4102V17.9626C17.4102 19.6366 18.0699 21.2421 19.2443 22.4258C20.4186 23.6095 22.0114 24.2745 23.6722 24.2745C25.333 24.2745 26.9258 23.6095 28.1001 22.4258C29.2745 21.2421 29.9343 19.6366 29.9343 17.9626V9.62012H26.5983V17.9626Z" fill="#858585"/>
<path d="M51.4049 10.4795C51.4049 8.76949 52.5273 8.22738 53.7569 8.22738C54.7478 8.22738 56.057 8.98738 56.913 9.90948L59.1058 7.30527C58.0111 5.81317 55.7906 4.78125 53.9731 4.78125C50.3414 4.78125 47.7145 6.92528 47.7145 10.4795C47.7145 17.0737 55.7111 14.9819 55.7111 18.6721C55.7111 19.8104 54.6147 20.8161 53.3591 20.8161C51.379 20.8161 50.7374 19.84 49.8278 18.8081L47.3945 21.3582C48.951 23.2844 50.8706 24.2623 53.1706 24.2623C56.6207 24.2623 59.3964 22.0921 59.3964 18.7C59.3964 11.3789 51.3998 13.6537 51.3998 10.4795" fill="#858585"/>
<path d="M100.875 21.1475C98.8963 21.1475 98.3342 20.2847 98.3342 18.9634V13.1153H101.409V10.152H98.3342V6.24219L94.9395 7.77787V19.6903C94.9395 22.7372 97.0251 24.2729 99.8854 24.2729C100.334 24.2812 100.782 24.245 101.224 24.1649L102.052 21.0918C101.679 21.1179 101.25 21.144 100.875 21.144" fill="#858585"/>
<path d="M39.3413 9.71814C37.6828 9.71814 36.5259 10.2027 35.407 11.3096V4.89844H32.0537V16.7812C32.0537 21.2296 35.2444 24.2766 38.8294 24.2766C42.8069 24.2766 46.3055 21.1756 46.3055 16.9991C46.3055 12.8749 43.0854 9.71988 39.3413 9.71988V9.71814ZM39.3205 20.8758C38.568 20.8758 37.8325 20.6509 37.2068 20.2295C36.5811 19.8081 36.0935 19.2092 35.8055 18.5085C35.5176 17.8078 35.4422 17.0367 35.589 16.2928C35.7358 15.5489 36.0982 14.8656 36.6303 14.3293C37.1623 13.793 37.8403 13.4278 38.5783 13.2798C39.3163 13.1318 40.0813 13.2078 40.7765 13.498C41.4717 13.7883 42.0659 14.2798 42.4839 14.9104C42.902 15.5411 43.1251 16.2825 43.1251 17.0409C43.1251 18.058 42.7243 19.0334 42.0108 19.7526C41.2973 20.4718 40.3296 20.8758 39.3205 20.8758Z" fill="#858585"/>
<path d="M75.7517 16.8209C75.7517 12.6375 72.2601 9.54346 68.2757 9.54346C64.6907 9.54346 61.5 12.5904 61.5 17.0388V28.9286H64.8532V22.5087C65.9704 23.6138 67.1291 24.1002 68.7858 24.1002C72.5299 24.1002 75.75 20.9469 75.75 16.8209H75.7517ZM72.5766 16.7791C72.5766 17.5376 72.3535 18.279 71.9354 18.9096C71.5174 19.5403 70.9232 20.0318 70.228 20.322C69.5328 20.6123 68.7678 20.6882 68.0298 20.5403C67.2917 20.3923 66.6138 20.0271 66.0817 19.4907C65.5496 18.9544 65.1873 18.2711 65.0405 17.5272C64.8937 16.7834 64.969 16.0123 65.257 15.3116C65.545 14.6109 66.0326 14.0119 66.6583 13.5906C67.2839 13.1692 68.0195 12.9443 68.772 12.9443C69.781 12.9443 70.7488 13.3483 71.4623 14.0675C72.1758 14.7866 72.5766 15.762 72.5766 16.7791Z" fill="#858585"/>
<path d="M86.5832 9.37961V5.98403C87.0284 5.77435 87.4053 5.44153 87.6702 5.02431C87.935 4.6071 88.0768 4.12264 88.0791 3.62734V3.5489C88.0791 2.85545 87.8058 2.1904 87.3193 1.70005C86.8328 1.20971 86.173 0.934233 85.485 0.934233H85.4072C84.7192 0.934233 84.0594 1.20971 83.5729 1.70005C83.0865 2.1904 82.8132 2.85545 82.8132 3.5489V3.62734C82.8154 4.12264 82.9572 4.6071 83.2221 5.02431C83.4869 5.44153 83.8639 5.77435 84.3091 5.98403V9.37961C83.0295 9.57692 81.8244 10.1115 80.8157 10.9292L71.5774 3.67615C71.6428 3.43697 71.6777 3.19036 71.6812 2.9423C71.6822 2.35959 71.5118 1.78966 71.1914 1.30461C70.871 0.819552 70.4152 0.441159 69.8814 0.21729C69.3477 -0.00657873 68.76 -0.0658662 68.1928 0.0469269C67.6257 0.15972 67.1044 0.439526 66.695 0.850954C66.2856 1.26238 66.0065 1.78695 65.8929 2.3583C65.7793 2.92965 65.8364 3.52212 66.0569 4.06077C66.2774 4.59942 66.6515 5.06005 67.1318 5.3844C67.6121 5.70875 68.177 5.88224 68.7551 5.88293C69.2606 5.88065 69.7567 5.74482 70.1939 5.48898L79.2922 12.6235C78.4746 13.8681 78.0481 15.332 78.0682 16.8245C78.0882 18.3169 78.5539 19.7687 79.4046 20.9905L76.6376 23.7794C76.4138 23.7074 76.1807 23.6692 75.9458 23.6661C75.4712 23.6665 75.0074 23.8086 74.6129 24.0746C74.2184 24.3406 73.911 24.7185 73.7296 25.1605C73.5481 25.6025 73.5007 26.0889 73.5934 26.558C73.6861 27.0272 73.9147 27.4581 74.2502 27.7964C74.5858 28.1346 75.0134 28.365 75.4788 28.4584C75.9443 28.5519 76.4268 28.5041 76.8653 28.3212C77.3039 28.1383 77.6788 27.8284 77.9427 27.4308C78.2066 27.0332 78.3476 26.5657 78.3479 26.0873C78.345 25.8506 78.3071 25.6156 78.2355 25.3901L80.9731 22.6307C81.8658 23.3231 82.9038 23.8004 84.0077 24.026C85.1117 24.2516 86.2522 24.2196 87.3419 23.9323C88.4316 23.6451 89.4417 23.1103 90.2947 22.3688C91.1477 21.6274 91.8211 20.699 92.2631 19.6547C92.7052 18.6105 92.9043 17.4781 92.8452 16.3444C92.7861 15.2106 92.4704 14.1055 91.9221 13.1137C91.3739 12.122 90.6077 11.2698 89.6823 10.6226C88.7569 9.97533 87.6968 9.55015 86.5832 9.37961ZM85.4487 20.546C84.6999 20.5453 83.968 20.3209 83.3457 19.9011C82.7234 19.4812 82.2385 18.8849 81.9523 18.1874C81.6661 17.4899 81.5915 16.7226 81.7379 15.9823C81.8843 15.2421 82.2451 14.5622 82.7747 14.0286C83.3044 13.495 83.9791 13.1317 84.7135 12.9845C85.448 12.8372 86.2092 12.9128 86.9011 13.2016C87.593 13.4903 88.1844 13.9794 88.6006 14.6068C89.0168 15.2343 89.2391 15.972 89.2395 16.7268C89.2395 17.7393 88.8405 18.7102 88.1302 19.4261C87.42 20.142 86.4566 20.5442 85.4522 20.5442" fill="#858585"/>
</svg>
