<svg width="21" height="22" viewBox="0 0 21 22" fill="none" xmlns="http://www.w3.org/2000/svg">
<path d="M15.4949 4.0791H5.50563C4.55395 4.0791 3.78027 4.78431 3.78027 5.80446V15.7937C3.78027 16.8139 4.55395 17.5191 5.50563 17.5191H15.4949C16.4466 17.5191 17.2203 16.8139 17.2203 15.7937V5.80446C17.2203 4.78431 16.4466 4.0791 15.4949 4.0791ZM12.9685 6.18103C12.9685 5.84554 13.2424 5.57852 13.571 5.57852H15.091C15.4264 5.57852 15.6935 5.85239 15.6935 6.18103V7.63252C15.6935 7.96801 15.4196 8.23503 15.091 8.23503H13.571C13.2355 8.23503 12.9685 7.96116 12.9685 7.63252V6.18103ZM10.5174 8.15971C12.01 8.15971 13.215 9.33049 13.215 10.7751C13.215 12.2198 12.0031 13.3906 10.5174 13.3906C9.02481 13.3906 7.8198 12.2198 7.8198 10.7751C7.8198 9.33049 9.02481 8.15971 10.5174 8.15971ZM15.7003 15.4446C15.7003 15.739 15.4607 15.9786 15.1663 15.9786H5.80688C5.51248 15.9786 5.27285 15.739 5.27285 15.4446V9.76183H6.50524C6.39569 10.1247 6.33407 10.515 6.33407 10.9121C6.33407 13.1509 8.20322 14.9584 10.5105 14.9584C12.8179 14.9584 14.687 13.1441 14.687 10.9121C14.687 10.515 14.6254 10.1247 14.5158 9.76183H15.7003V15.4446Z" fill="#E0E0E0"/>
</svg>
