<svg width="20" height="22" viewBox="0 0 20 22" fill="none" xmlns="http://www.w3.org/2000/svg">
<path d="M16.281 17.4016L16.2874 12.5172C16.2874 10.1257 15.7984 8.28809 13.1347 8.28809C11.8543 8.28809 10.9986 9.02447 10.6447 9.72707H10.6061V8.50427H8.08398V17.3949H10.7091V12.9969C10.7091 11.8349 10.9214 10.7134 12.2854 10.7134C13.6302 10.7134 13.6559 12.0375 13.6559 13.0712V17.4016H16.281Z" fill="#E0E0E0"/>
<path d="M6.44306 8.50391H3.81152V17.3945H6.44306V8.50391Z" fill="#E0E0E0"/>
<path d="M5.12448 4.0791C4.28162 4.0791 3.59961 4.79521 3.59961 5.68022C3.59961 6.56523 4.28162 7.29486 5.12448 7.29486C5.96735 7.29486 6.64935 6.56523 6.64935 5.68022C6.64935 4.79521 5.96735 4.0791 5.12448 4.0791Z" fill="#E0E0E0"/>
</svg>
