<svg width="30" height="31" viewBox="0 0 30 31" fill="none" xmlns="http://www.w3.org/2000/svg">
<path d="M15.7208 15.4302V11.9956C15.7208 11.5968 15.3993 11.2754 15.0005 11.2754C14.6017 11.2754 14.2803 11.5968 14.2803 11.9956V15.7873C14.2803 16.0135 14.3874 16.2278 14.566 16.3647L17.0958 18.2636C17.2208 18.3588 17.3696 18.4064 17.5303 18.4064C17.7624 18.4064 17.9708 18.2993 18.1077 18.1147C18.2208 17.96 18.2744 17.7695 18.2446 17.579C18.2148 17.3885 18.1196 17.2219 17.9648 17.1028L15.7208 15.4302Z" fill="white"/>
<path d="M15.0001 7.48926C10.4524 7.48926 6.75 11.1917 6.75 15.7393C6.75 20.287 10.4524 23.9894 15.0001 23.9894C19.5477 23.9894 23.2502 20.287 23.2502 15.7393C23.2502 11.1917 19.5477 7.48926 15.0001 7.48926ZM21.8097 15.7393C21.8097 19.4953 18.7561 22.5489 15.0001 22.5489C11.2441 22.5489 8.19049 19.4953 8.19049 15.7393C8.19049 11.9833 11.2441 8.92975 15.0001 8.92975C18.7561 8.92975 21.8097 11.9833 21.8097 15.7393Z" fill="white"/>
</svg>
