<svg width="21" height="22" viewBox="0 0 21 22" fill="none" xmlns="http://www.w3.org/2000/svg">
<path d="M16.8447 7.32801L16.8528 7.75037C16.8528 12.0877 13.5588 17.0991 7.53738 17.0991C5.69211 17.0991 3.96823 16.5549 2.51953 15.6127C2.77042 15.6452 3.02941 15.6615 3.29649 15.6615C4.83422 15.6615 6.24245 15.1335 7.35933 14.2482C5.92681 14.2238 4.72091 13.2735 4.30006 11.9658C4.50239 12.0064 4.70472 12.0227 4.91515 12.0227C5.2146 12.0227 5.50596 11.9821 5.77304 11.909C4.27578 11.6084 3.15081 10.2845 3.15081 8.69255V8.66006C3.58785 8.90373 4.08963 9.04993 4.63188 9.06618C3.7578 8.48137 3.18318 7.46609 3.18318 6.33709C3.18318 5.73604 3.34505 5.16749 3.62831 4.68015C5.23079 6.67011 7.65069 7.96967 10.37 8.10775C10.3134 7.8722 10.2891 7.62041 10.2891 7.3605C10.2891 5.54923 11.7459 4.0791 13.5588 4.0791C14.4976 4.0791 15.3555 4.47709 15.9544 5.11063C16.6909 4.96443 17.395 4.69639 18.0344 4.32277C17.7916 5.08626 17.2736 5.73604 16.5938 6.14216C17.2574 6.06094 17.8887 5.88225 18.4795 5.62233C18.0344 6.28024 17.476 6.86504 16.8447 7.32801Z" fill="#E0E0E0"/>
</svg>
