<svg width="17" height="17" viewBox="0 0 17 17" fill="none" xmlns="http://www.w3.org/2000/svg">
<path d="M13.8839 10.5948C13.1172 9.82803 12.2282 9.2502 11.2337 8.86684C12.3171 8.02232 12.9561 6.72221 12.9561 5.34431C12.9561 2.88299 10.9559 0.882812 8.49458 0.882812C6.03882 0.882812 4.03864 2.88299 4.03864 5.34431C4.03864 6.72221 4.67759 8.02232 5.76101 8.86684C4.76648 9.2502 3.87752 9.82803 3.11078 10.5948C1.67733 12.0282 0.882812 13.9451 0.882812 15.9786V16.1175H2.32738V15.9786C2.32738 12.5783 5.09429 9.80581 8.50014 9.80581C11.9004 9.80581 14.6729 12.5727 14.6729 15.9786V16.1175H16.1175V15.9786C16.1175 13.9451 15.323 12.0282 13.8839 10.5948ZM11.5171 5.34431C11.5171 7.00557 10.1614 8.36124 8.50014 8.36124C6.83888 8.36124 5.48321 7.00557 5.48321 5.34431C5.48321 3.68305 6.83888 2.32738 8.50014 2.32738C10.1614 2.32738 11.5171 3.68305 11.5171 5.34431Z" fill="white"/>
</svg>
